<?xml version="1.0" encoding="utf-8"?>
<!-- Generator: Adobe Illustrator 25.2.0, SVG Export Plug-In . SVG Version: 6.00 Build 0)  -->
<svg version="1.1" id="Camada_1" xmlns="http://www.w3.org/2000/svg" xmlns:xlink="http://www.w3.org/1999/xlink" x="0px" y="0px"
	 viewBox="0 0 1440 1024" style="enable-background:new 0 0 1440 1024;" xml:space="preserve">
<style type="text/css">
	.st0{fill:#020203;}
	.st1{opacity:0.57;fill:none;stroke:#FFFFFF;stroke-miterlimit:10;}
	.st2{fill:none;stroke:#FFFFFF;stroke-miterlimit:10;}
	.st3{opacity:0.32;}
	.st4{fill:#C18C31;stroke:#FFFFFF;stroke-miterlimit:10;}
</style>
<g>
	<g>
		<rect x="-81.37" y="-167.9" class="st0" width="1576.11" height="1353"/>
	</g>
</g>
<path class="st1" d="M1202.52,861.61"/>
<path class="st1" d="M879.9,857.07"/>
<path class="st2" d="M1170.79,979.65"/>
<path class="st1" d="M893.12,891.12"/>
<path class="st2" d="M1049.14,1063.65"/>
<path class="st1" d="M871.96,904.74"/>
<g class="st3">
	<path class="st4" d="M-222.85,189.65"/>
	<g>
		<polygon class="st2" points="831.79,596.54 1290.49,594.84 1216.51,486.18 1148.16,486.23 1187.14,543.48 935,544.75 
			971.46,487.82 902.01,487.93 		"/>
		<g>
			<polygon class="st2" points="950.29,537.08 1172.97,536.89 1138.46,486.21 1052.66,485.72 1093.78,420.58 1059.77,370.63 			"/>
		</g>
		<g>
			<polygon class="st2" points="1015.02,422.92 947.7,421.96 1058.95,255.59 1172.07,420.92 1103.06,420.81 1059.86,357.37 			"/>
			<polygon class="st2" points="977.05,480.12 830.05,480.99 1056.88,138.74 1130.36,246.67 1096.52,297.4 1058.3,241.25 
				933.69,428.99 1010.21,429.24 			"/>
		</g>
		<g>
			<polygon class="st2" points="1136.03,354.86 1102.27,305.28 1174.33,195.75 1310.84,394.01 1406.72,536.52 1260.65,537.9 
				1225.73,486.61 1303.28,483.9 1227.08,373.1 1176.17,298.04 			"/>
		</g>
		<polygon class="st2" points="1067.1,478.48 1287.26,477.1 1175.3,312.66 1141.49,362.89 1185.43,427.42 1098.99,428.24 		"/>
	</g>
	<g>
		<polygon class="st2" points="1525.7,153.97 1366.82,-112.02 1306.49,-30.6 1330,9.1 1361.78,-33.79 1449.39,112.29 
			1391.94,111.24 1415.88,151.56 		"/>
		<g>
			<polygon class="st2" points="1438.08,106.12 1361.45,-23.23 1333.31,14.75 1362.4,64.79 1296.87,63.93 1269.13,101.36 			"/>
		</g>
		<g>
			<polygon class="st2" points="1325.76,108.87 1348.13,148.34 1178.65,142.51 1270.25,18.3 1293.87,58.45 1258.64,105.99 			"/>
			<polygon class="st2" points="1383.95,110.71 1435.12,195.84 1095.35,184.99 1147.07,104.16 1198.73,105.89 1167.55,147.97 
				1358.5,153.99 1332.41,109.43 			"/>
		</g>
		<g>
			<polygon class="st2" points="1230.5,62.61 1202.97,99.77 1086.32,96.65 1190.42,-52.77 1272.7,-163.63 1332.14,-74.54 
				1303.66,-36.11 1274.88,-80.22 1213.62,3.25 1171.88,59.38 			"/>
		</g>
		<polygon class="st2" points="1351.72,58.96 1275.02,-68.51 1183.72,54.71 1234.96,56.6 1270.79,8.24 1301.12,58.19 		"/>
	</g>
	<g>
		<polygon class="st2" points="1622.79,-171.46 1426.42,-179.11 1456.01,-130.92 1485.26,-129.7 1469.67,-155.08 1577.62,-151.03 
			1560.93,-127.15 1590.65,-125.93 		"/>
		<g>
			<polygon class="st2" points="1570.93,-148 1475.61,-151.99 1489.41,-129.51 1526.13,-127.73 1507.28,-100.4 1520.89,-78.25 			
				"/>
		</g>
		<g>
			<polygon class="st2" points="1541.04,-99.97 1569.84,-98.33 1519.04,-28.64 1473.78,-101.98 1503.32,-100.67 1520.59,-72.53 			
				"/>
			<polygon class="st2" points="1558.39,-123.93 1621.32,-121.62 1519.96,18.3 1488.3,-26.1 1503.75,-47.35 1519.04,-22.45 
				1575.97,-101.1 1543.22,-102.61 			"/>
		</g>
		<g>
			<polygon class="st2" points="1487.94,-72.85 1501.44,-50.85 1466.99,-2.65 1410.84,-88.3 1370.59,-153.97 1438.1,-154.02 
				1452.07,-131.28 1418.82,-131.53 1449.32,-82.37 1469.68,-49.08 			"/>
		</g>
		<polygon class="st2" points="1519.81,-124.87 1425.55,-128.3 1470.33,-55.37 1485.76,-76.4 1468.19,-105.03 1505.2,-103.8 		"/>
	</g>
	<g>
		<polygon class="st2" points="1327.77,596.27 942.54,597.86 1004.72,689.08 1062.12,689.02 1029.36,640.96 1241.12,639.79 
			1210.53,687.62 1268.85,687.51 		"/>
		<g>
			<polygon class="st2" points="1228.28,646.24 1041.27,646.48 1070.27,689.03 1142.33,689.41 1107.83,744.14 1136.42,786.08 			"/>
		</g>
		<g>
			<polygon class="st2" points="1173.97,742.15 1230.51,742.93 1137.16,882.69 1042.07,743.88 1100.04,743.94 1136.34,797.21 			"/>
			<polygon class="st2" points="1205.84,694.09 1329.29,693.31 1138.95,980.82 1077.18,890.21 1105.58,847.59 1137.71,894.74 
				1242.28,737.02 1178.01,736.83 			"/>
		</g>
		<g>
			<polygon class="st2" points="1072.37,799.34 1100.75,840.98 1040.28,932.99 925.54,766.52 844.95,646.88 967.63,645.66 
				996.98,688.73 931.85,691.03 995.9,784.06 1038.69,847.08 			"/>
		</g>
		<polygon class="st2" points="1130.21,695.5 945.31,696.73 1039.42,834.8 1067.78,792.61 1030.85,738.42 1103.45,737.71 		"/>
	</g>
	<g>
		<polygon class="st2" points="558.6,399.11 173.37,399.91 235.29,491.26 292.69,491.32 260.07,443.18 471.83,442.46 441.1,490.23 
			499.42,490.23 		"/>
		<g>
			<polygon class="st2" points="458.97,448.88 271.96,448.74 300.84,491.35 372.9,491.87 338.25,546.53 366.72,588.53 			"/>
		</g>
		<g>
			<polygon class="st2" points="404.39,544.68 460.93,545.57 367.19,685.14 272.49,546.14 330.45,546.32 366.61,599.66 			"/>
			<polygon class="st2" points="436.39,496.68 559.85,496.16 368.7,783.28 307.19,692.54 335.71,649.98 367.71,697.19 
				472.71,539.68 408.44,539.37 			"/>
		</g>
		<g>
			<polygon class="st2" points="302.64,601.66 330.9,643.35 270.17,735.24 155.9,568.54 75.64,448.72 198.32,447.77 227.55,490.89 
				162.42,493.06 226.2,586.22 268.82,649.33 			"/>
		</g>
		<polygon class="st2" points="360.76,497.94 175.86,498.79 269.58,637.05 298.07,594.92 261.28,540.65 333.88,540.09 		"/>
	</g>
	<g>
		<polygon class="st2" points="118.94,591.65 -21.91,802.36 68.53,802.08 89.65,770.74 42,770.89 119.2,654.97 143.33,689.28 
			164.74,657.43 		"/>
		<g>
			<polygon class="st2" points="119.24,664.35 50.48,766.44 92.66,766.31 119.51,727.14 147.3,766.13 188.88,766 			"/>
		</g>
		<g>
			<polygon class="st2" points="170.21,729.32 191.63,698.77 260.66,801.22 122.86,801.91 144.28,770.31 197.09,770.15 			"/>
			<polygon class="st2" points="146.38,694.23 191.32,626.6 333.95,836.42 244.11,836.7 223.04,805.5 269.78,805.36 191.59,690.18 
				167.76,725.16 			"/>
		</g>
		<g>
			<polygon class="st2" points="175.08,805.83 216.36,805.7 262.17,872.6 96.66,873.81 -21.61,873.66 22.72,806.3 65.41,806.17 
				43.11,842.54 135.58,841.9 198,841.8 			"/>
		</g>
		<polygon class="st2" points="119.55,736 52.29,837.3 189.18,836.87 168.41,805.85 114.69,806.01 140.92,766.15 		"/>
	</g>
	<g>
		<polygon class="st2" points="262.81,1130.74 -24.7,1138.47 23.81,1205.5 66.66,1204.48 41.1,1169.16 199.13,1164.7 177.4,1200.92 
			220.93,1199.84 		"/>
		<g>
			<polygon class="st2" points="189.69,1169.73 50.11,1173.08 72.74,1204.35 126.54,1203.41 102.05,1244.85 124.35,1275.67 			"/>
		</g>
		<g>
			<polygon class="st2" points="151.37,1242.24 193.59,1241.86 127.13,1347.76 52.96,1245.77 96.22,1244.83 124.55,1283.98 			"/>
			<polygon class="st2" points="174.05,1205.82 266.18,1203.14 130.73,1420.99 82.54,1354.4 102.75,1322.11 127.82,1356.75 
				202.24,1237.25 154.26,1238.2 			"/>
		</g>
		<g>
			<polygon class="st2" points="76.85,1286.65 99,1317.25 55.98,1386.96 -33.5,1264.65 -96.42,1176.71 -4.87,1173.72 18.03,1205.37 
				-30.53,1208.2 19.42,1276.55 52.81,1322.86 			"/>
		</g>
		<polygon class="st2" points="117.63,1208.16 -20.35,1212.22 53.07,1313.68 73.27,1281.71 44.46,1241.89 98.63,1240.12 		"/>
	</g>
	<g>
		<polygon class="st2" points="-149.37,852.52 -290.82,1067.53 -198.89,1066.71 -177.68,1034.73 -226.12,1035.17 -148.58,916.88 
			-123.78,951.61 -102.27,919.11 		"/>
		<g>
			<polygon class="st2" points="-148.46,926.41 -217.53,1030.59 -174.65,1030.2 -147.68,990.23 -119.13,1029.7 -76.86,1029.32 			
				"/>
		</g>
		<g>
			<polygon class="st2" points="-96.14,992.15 -74.61,960.97 -3.62,1064.68 -143.67,1066.21 -122.16,1033.97 -68.48,1033.48 			"/>
			<polygon class="st2" points="-120.63,956.62 -75.51,887.61 71.17,1100.03 -20.14,1100.85 -41.82,1069.26 5.69,1068.84 
				-74.72,952.23 -98.66,987.94 			"/>
		</g>
		<g>
			<polygon class="st2" points="-90.56,1069.88 -48.6,1069.5 -1.5,1137.23 -169.72,1139.45 -289.94,1140.01 -245.42,1071.27 
				-202.03,1070.88 -224.4,1107.99 -130.42,1106.79 -66.97,1106.31 			"/>
		</g>
		<polygon class="st2" points="-147.57,999.24 -215.11,1102.61 -75.98,1101.35 -97.35,1069.94 -151.95,1070.43 -125.6,1029.76 		"/>
	</g>
	<g>
		<polygon class="st2" points="-242.12,553.77 -98.74,767.85 -52.71,699.53 -73.94,667.57 -98.2,703.56 -177.22,586 -129.77,585.39 
			-151.38,552.94 		"/>
		<g>
			<polygon class="st2" points="-167.61,590.77 -98.41,694.89 -76.94,663.02 -103.25,622.73 -49.13,621.76 -27.97,590.35 			"/>
		</g>
		<g>
			<polygon class="st2" points="-75.05,585.64 -95.33,553.85 44.8,554.28 -25.06,658.49 -46.41,626.17 -19.53,586.28 			"/>
			<polygon class="st2" points="-123.15,585.62 -169.3,517.12 118.35,517.07 72.63,584.93 29.92,584.83 53.71,549.53 
				-104.14,549.47 -80.56,585.35 			"/>
		</g>
		<g>
			<polygon class="st2" points="5.69,621.14 26.7,589.96 118.59,589.7 35.07,715.07 -25.66,804.14 -71.85,736.22 -50.12,703.98 
				-24.34,739.42 22.36,669.4 54.22,622.29 			"/>
		</g>
		<polygon class="st2" points="-94.17,627.24 -25,729.81 44.67,626.42 2.29,626.18 -25.05,666.76 -52.38,626.57 		"/>
	</g>
	<g>
		<polygon class="st2" points="-134.6,142.36 -311.03,400.65 -199.55,401.2 -173.11,362.8 -231.84,362.51 -135.12,220.4 
			-105.85,262.93 -79.03,223.88 		"/>
		<g>
			<polygon class="st2" points="-135.2,231.96 -221.33,357.1 -169.33,357.36 -135.71,309.35 -101.99,357.69 -50.75,357.94 			"/>
		</g>
		<g>
			<polygon class="st2" points="-73.26,312.55 -46.45,275.11 37.25,402.05 -132.59,401.53 -105.77,362.81 -40.68,363.13 			"/>
			<polygon class="st2" points="-102.15,269.05 -45.86,188.42 127.11,448.43 16.38,445.62 -9.17,406.96 48.43,407.24 -46.38,264.51 
				-76.22,307.39 			"/>
		</g>
		<g>
			<polygon class="st2" points="-68.28,406.88 -17.41,407.13 38.15,499.12 -165.85,501.25 -311.61,499.89 -256.07,405.96 
				-203.45,406.21 -231.43,450.82 -117.46,450.95 -40.52,451.44 			"/>
		</g>
		<polygon class="st2" points="-135.79,320.27 -220.04,444.46 -51.33,445.29 -76.51,406.84 -142.72,406.51 -109.85,357.65 		"/>
	</g>
	<g>
		<polygon class="st2" points="59.52,-62.71 217.9,-329.49 106.58,-324.39 82.82,-284.71 141.47,-287.4 54.68,-140.64 
			22.54,-181.61 -1.55,-141.28 		"/>
		<g>
			<polygon class="st2" points="53.97,-152.18 131.35,-281.46 79.42,-279.09 49.16,-229.46 12.18,-276.01 -39,-273.67 			"/>
		</g>
		<g>
			<polygon class="st2" points="-13.4,-229.49 -37.59,-190.76 -129.87,-313.24 39.71,-321.33 15.6,-281.31 -49.4,-278.33 			"/>
			<polygon class="st2" points="18.43,-187.54 -32.23,-104.2 -222.76,-355 -112.03,-357.79 -83.86,-320.49 -141.39,-317.86 
				-36.93,-180.18 -10.09,-224.5 			"/>
		</g>
		<g>
			<polygon class="st2" points="-24.85,-323.41 -75.66,-321.08 -137.44,-410.1 66.06,-422.55 211.66,-428.58 162.67,-332 
				110.13,-329.59 134.99,-375.54 21.21,-369.9 -55.63,-366.49 			"/>
		</g>
		<polygon class="st2" points="48.49,-240.37 124.06,-368.6 -44.42,-360.89 -16.64,-323.79 49.48,-326.81 20.03,-276.37 		"/>
	</g>
	<g>
		<polygon class="st2" points="280.3,-342.78 172.33,-137.15 251.49,-141.88 267.69,-172.47 225.99,-169.98 285.14,-283.1 
			308.76,-251.93 325.18,-283.02 		"/>
		<g>
			<polygon class="st2" points="285.86,-274.26 233.09,-174.6 270.01,-176.8 290.66,-215.06 317.82,-179.66 354.21,-181.83 			"/>
		</g>
		<g>
			<polygon class="st2" points="335.2,-215.5 351.73,-245.36 419.6,-152.18 299.03,-144.72 315.48,-175.57 361.7,-178.33 			"/>
			<polygon class="st2" points="311.79,-247.42 356.94,-316.21 481.18,-120.86 407.7,-117.9 386.98,-146.28 427.89,-148.72 
				351.07,-253.47 332.75,-219.3 			"/>
		</g>
		<g>
			<polygon class="st2" points="345.03,-143.61 381.15,-145.76 426.73,-66.64 282.08,-64.68 178.54,-61.26 211.69,-135.64 
				249.05,-137.87 232.17,-102.47 313.07,-107.64 367.7,-110.82 			"/>
		</g>
		<polygon class="st2" points="291.34,-206.71 239.83,-107.87 359.62,-115.03 339.19,-143.26 292.17,-140.45 312.24,-179.33 		"/>
	</g>
	<g>
		<polygon class="st2" points="105.19,298.84 275.16,49.47 166.35,43.07 139.29,81.16 198.01,82.14 99.03,223.09 70.44,180.22 
			40.35,218.94 		"/>
		<g>
			<polygon class="st2" points="99.29,211.53 187.42,87.42 135.43,86.55 101.05,134.16 68.1,85.43 16.86,84.57 			"/>
		</g>
		<g>
			<polygon class="st2" points="38.65,130.22 11.24,167.34 -70.41,39.43 99.4,41.95 71.96,80.35 6.88,79.26 			"/>
			<polygon class="st2" points="66.84,174.05 -1.32,254.01 -172.75,-10.29 -48.85,-6.16 -23.92,35.07 -81.52,34.1 11,177.94 
				41.53,135.41 			"/>
		</g>
		<g>
			<polygon class="st2" points="35.18,35.84 -15.69,34.99 -69.77,-62.19 134.25,-61.91 279.98,-63.37 222.94,38.98 170.33,38.1 
				199.02,-6.17 85.06,-7.65 8.14,-9.04 			"/>
		</g>
		<polygon class="st2" points="101.29,123.24 187.53,0.06 18.85,-2.76 43.41,35.98 109.61,37.08 75.96,85.56 		"/>
	</g>
	<g>
		<polygon class="st2" points="275.73,49.26 106.85,300.37 209.94,300.91 235.65,263.57 178.55,263.29 272.58,125.13 301.03,166.48 
			329.75,126.25 		"/>
		<g>
			<polygon class="st2" points="272.5,136.37 188.77,258.03 239.32,258.28 272,211.61 304.78,258.6 354.61,258.85 			"/>
		</g>
		<g>
			<polygon class="st2" points="332.72,214.72 358.78,178.32 440.15,301.73 275.04,301.23 301.11,263.58 364.39,263.89 			"/>
			<polygon class="st2" points="304.63,172.43 369.94,91.77 527.52,346.83 417.22,344.09 395.02,306.5 451.03,306.78 358.85,168.01 
				329.84,209.71 			"/>
		</g>
		<g>
			<polygon class="st2" points="337.56,306.43 387.02,306.67 441.04,396.11 242.7,398.17 98.34,396.85 154.99,305.53 206.15,305.78 
				178.94,349.15 289.75,349.28 364.55,349.75 			"/>
		</g>
		<polygon class="st2" points="271.93,222.22 190.02,342.96 354.04,343.77 329.56,306.39 265.18,306.07 297.14,258.56 		"/>
	</g>
	<g>
		<polygon class="st2" points="-375.07,919.61 -87.66,909.58 -136.9,842.94 -179.73,844.3 -153.79,879.42 -311.77,885.14 
			-290.43,848.75 -333.95,850.18 		"/>
		<g>
			<polygon class="st2" points="-302.39,880.04 -162.85,875.56 -185.81,844.48 -239.6,845.85 -215.56,804.22 -238.2,773.58 			"/>
		</g>
		<g>
			<polygon class="st2" points="-264.85,807.22 -307.06,807.94 -241.76,701.51 -166.48,802.9 -209.74,804.19 -238.49,765.27 			"/>
			<polygon class="st2" points="-287.13,843.82 -379.23,847.23 -246.15,628.32 -197.24,694.52 -217.1,726.97 -242.55,692.53 
				-315.66,812.62 -267.7,811.28 			"/>
		</g>
		<g>
			<polygon class="st2" points="-190.82,762.21 -213.29,731.8 -171.04,661.75 -80.23,783.33 -16.36,873.03 -107.87,872.21 
				-131.11,843.02 -82.59,839.81 -133.28,771.86 -167.17,725.82 			"/>
		</g>
		<polygon class="st2" points="-230.74,841.03 -92.81,835.86 -167.33,735 -187.19,767.13 -157.94,806.72 -212.09,808.92 		"/>
	</g>
	<g>
		<polygon class="st2" points="-58.06,907.17 72.49,1100.19 113.8,1038.29 94.46,1009.47 72.7,1042.08 0.74,936.08 43.63,935.37 
			23.95,906.11 		"/>
		<g>
			<polygon class="st2" points="9.45,940.36 72.47,1034.24 91.73,1005.37 67.77,969.03 116.68,967.98 135.67,939.52 			"/>
		</g>
		<g>
			<polygon class="st2" points="93.09,935.42 74.62,906.75 201.29,906.68 138.6,1001.11 119.17,971.96 143.28,935.82 			"/>
			<polygon class="st2" points="49.62,935.56 7.59,873.79 267.6,872.8 226.57,934.28 187.97,934.34 209.32,902.35 66.64,902.82 
				88.11,935.17 			"/>
		</g>
		<g>
			<polygon class="st2" points="166.24,967.24 185.08,938.99 268.14,938.45 193.21,1052.05 138.71,1132.75 96.66,1071.52 
				116.15,1042.3 139.61,1074.25 181.52,1010.8 210.1,968.12 			"/>
		</g>
		<polygon class="st2" points="76,973.08 138.98,1065.57 201.49,971.88 163.19,971.81 138.65,1008.58 113.77,972.34 		"/>
	</g>
	<g>
		<polygon class="st2" points="1084.33,994.62 1225.5,1203.34 1270.16,1136.41 1249.25,1105.25 1225.72,1140.51 1147.91,1025.89 
			1194.29,1025.12 1173.01,993.48 		"/>
		<g>
			<polygon class="st2" points="1157.33,1030.52 1225.47,1132.03 1246.3,1100.81 1220.39,1061.52 1273.28,1060.38 1293.81,1029.61 
							"/>
		</g>
		<g>
			<polygon class="st2" points="1247.77,1025.17 1227.8,994.17 1364.76,994.1 1296.98,1096.2 1275.96,1064.69 1302.04,1025.6 			"/>
			<polygon class="st2" points="1200.76,1025.32 1155.32,958.53 1436.47,957.46 1392.11,1023.95 1350.37,1024.01 1373.45,989.42 
				1219.16,989.92 1242.39,1024.91 			"/>
		</g>
		<g>
			<polygon class="st2" points="1326.86,1059.58 1347.24,1029.03 1437.06,1028.45 1356.03,1151.28 1297.1,1238.55 1251.63,1172.34 
				1272.71,1140.74 1298.07,1175.29 1343.39,1106.69 1374.3,1060.53 			"/>
		</g>
		<polygon class="st2" points="1229.29,1065.9 1297.39,1165.91 1364.98,1064.6 1323.56,1064.52 1297.04,1104.28 1270.13,1065.1 		
			"/>
	</g>
	<g>
		<polygon class="st2" points="1317.68,715.26 1198.57,895.02 1275.56,894.53 1293.42,867.8 1252.85,868.06 1318.15,769.16 
			1338.81,798.31 1356.92,771.13 		"/>
		<g>
			<polygon class="st2" points="1318.22,777.14 1260.06,864.24 1295.97,864.01 1318.68,830.6 1342.48,863.72 1377.87,863.49 			"/>
		</g>
		<g>
			<polygon class="st2" points="1361.84,832.32 1379.96,806.25 1439.11,893.27 1321.81,894.24 1339.92,867.28 1384.88,867 			"/>
			<polygon class="st2" points="1341.43,802.5 1379.43,744.81 1501.64,923.04 1425.16,923.53 1407.1,897.02 1446.89,896.77 
				1379.9,798.93 1359.75,828.78 			"/>
		</g>
		<g>
			<polygon class="st2" points="1366.28,897.43 1401.42,897.21 1440.67,954.04 1299.77,955.52 1199.09,955.72 1236.58,898.25 
				1272.92,898.02 1254.07,929.05 1332.78,928.25 1385.92,927.99 			"/>
		</g>
		<polygon class="st2" points="1318.74,838.14 1261.87,924.56 1378.39,923.82 1360.6,897.47 1314.86,897.76 1337.05,863.75 		"/>
	</g>
	<g>
		<polygon class="st2" points="1409.24,1186.46 1556.64,1189.77 1534.11,1154.24 1512.15,1153.68 1524.02,1172.4 1443,1170.69 
			1455.36,1152.71 1433.04,1152.16 		"/>
		<g>
			<polygon class="st2" points="1448,1168.36 1519.54,1170.17 1509.03,1153.59 1481.47,1152.72 1495.42,1132.13 1485.07,1115.79 			
				"/>
		</g>
		<g>
			<polygon class="st2" points="1470.09,1132.22 1448.48,1131.35 1486.11,1078.83 1520.58,1132.9 1498.4,1132.28 1485.25,1111.54 
							"/>
			<polygon class="st2" points="1457.24,1150.28 1410,1149.32 1486.78,1041.27 1509.16,1076.56 1497.71,1092.58 1486.07,1074.21 
				1443.89,1133.49 1468.48,1134.21 			"/>
		</g>
		<g>
			<polygon class="st2" points="1509.75,1111.37 1499.47,1095.16 1523.87,1060.57 1565.47,1125.42 1594.65,1172.01 1547.7,1171.23 
				1537.07,1154.45 1562.01,1154.23 1538.8,1118 1523.29,1093.45 			"/>
		</g>
		<polygon class="st2" points="1486.19,1150.51 1556.94,1151.92 1522.85,1098.14 1511.41,1113.99 1524.79,1135.1 1497.01,1134.63 		
			"/>
	</g>
	<g>
		<polygon class="st2" points="1494.32,428.56 1325.66,638.15 1420.31,646.27 1446.36,615.46 1396.49,611.18 1491.89,497.09 
			1512.8,535.23 1539.22,503.9 		"/>
		<g>
			<polygon class="st2" points="1490.75,506.91 1405.92,607.31 1450.07,611.09 1483.1,572.62 1507.25,616 1550.76,619.73 			"/>
		</g>
		<g>
			<polygon class="st2" points="1535.86,579.62 1562.13,549.66 1621.4,663.24 1477.17,651.15 1503.56,620.09 1558.83,624.83 			"/>
			<polygon class="st2" points="1515.37,540.69 1570.92,474.13 1693.64,706.89 1599.62,698.83 1581.51,664.23 1630.43,668.42 
				1563.17,540.66 1533.83,575.04 			"/>
		</g>
		<g>
			<polygon class="st2" points="1531.3,660.1 1574.5,663.81 1613.98,738.06 1440.68,723.93 1316.97,712.77 1371.85,646.43 
				1416.53,650.26 1388.61,686.24 1485.42,694.17 1550.74,699.87 			"/>
		</g>
		<polygon class="st2" points="1482.02,581.89 1398.88,681.61 1542.13,693.9 1524.32,659.51 1468.1,654.68 1500.58,615.43 		"/>
	</g>
	<g>
		<polygon class="st2" points="1216.37,232.71 1362.5,448.77 1408.73,379.48 1387.08,347.22 1362.73,383.73 1282.18,265.07 
			1330.19,264.28 1308.16,231.53 		"/>
		<g>
			<polygon class="st2" points="1291.93,269.87 1362.47,374.95 1384.03,342.63 1357.21,301.96 1411.96,300.78 1433.21,268.93 			"/>
		</g>
		<g>
			<polygon class="st2" points="1385.56,264.33 1364.88,232.24 1506.66,232.17 1436.5,337.86 1414.74,305.24 1441.73,264.78 			"/>
			<polygon class="st2" points="1336.89,264.49 1289.85,195.35 1580.88,194.24 1534.96,263.07 1491.75,263.13 1515.65,227.32 
				1355.94,227.85 1379.98,264.06 			"/>
		</g>
		<g>
			<polygon class="st2" points="1467.42,299.95 1488.52,268.33 1615.87,267.73 1521.41,394.88 1444.55,485.21 1389.54,416.68 
				1411.37,383.97 1437.63,419.73 1484.53,348.71 1516.53,300.94 			"/>
		</g>
		<polygon class="st2" points="1366.42,306.49 1436.91,410.01 1506.88,305.15 1464.01,305.07 1436.55,346.22 1408.7,305.66 		"/>
	</g>
</g>
<g class="st3">
	<polygon class="st2" points="278.93,-62.59 599.21,463.73 717.69,292.64 670.28,214.05 607.86,304.19 431.28,15.16 545.44,14.31 
		497.18,-67.76 	"/>
	<g>
		<polygon class="st2" points="453.85,26.68 608.34,282.68 663.6,202.87 604.94,103.78 735.16,99.53 789.63,20.87 		"/>
	</g>
	<g>
		<polygon class="st2" points="676.98,13.05 631.86,-67.41 968.73,-71.11 788.85,189.87 741.22,110.39 810.4,10.49 		"/>
		<polygon class="st2" points="561.33,12.37 458.19,-160.58 1149.81,-159.15 1032.13,3.98 929.46,5.2 990.69,-83.21 611.17,-77.97 
			663.77,12.53 		"/>
	</g>
	<g>
		<polygon class="st2" points="867.06,96.13 921.13,18.05 1142.1,14.26 926.96,328.21 781.36,551.28 667.47,384.34 723.4,303.58 
			781.33,390.65 901.63,215.3 983.61,97.33 		"/>
	</g>
	<polygon class="st2" points="626.26,114.66 780.85,366.83 960.16,107.9 858.31,108.76 787.94,210.38 726.82,111.59 	"/>
	<polygon class="st2" points="230.19,1182.83 961.21,1181.93 843.9,1008.48 734.97,1008.29 796.78,1099.67 394.95,1100.71 
		453.36,1010.12 342.68,1010.02 	"/>
	<g>
		<polygon class="st2" points="419.36,1088.55 774.23,1089.12 719.51,1008.21 582.77,1007.1 648.65,903.44 594.72,823.7 		"/>
	</g>
	<polygon class="st2" points="523.13,906.86 415.85,905.07 594.03,640.38 773.43,904.29 663.44,903.86 594.94,802.58 	"/>
	<polygon class="st2" points="462.3,997.88 228.03,998.68 591.37,454.14 710.54,626.43 653.69,707.15 593.07,617.51 393.47,916.22 
		515.43,916.92 	"/>
	<g>
		<polygon class="st2" points="716.34,798.89 665.45,719.73 780.88,550.28 994.72,866.79 1146.76,1089.45 913.96,1091.08 
			858.59,1009.2 982.19,1005.19 861.35,828.3 780.61,708.48 		"/>
	</g>
	<polygon class="st2" points="605.82,995.61 956.69,994.29 779.14,731.78 725,811.69 794.68,914.71 656.92,915.67 	"/>
</g>
</svg>
